<svg width="176" height="72" viewBox="0 0 176 72" fill="none" xmlns="http://www.w3.org/2000/svg">
<path d="M37.294 44.4615C38.7577 44.7133 40.3916 44.804 42.1046 44.7689C41.1572 42.6815 40.0806 40.7317 39.0774 39.0425C38.0038 39.0425 37.0212 39.0074 36.1412 38.9869C36.1412 38.9869 34.8388 44.0399 37.294 44.4615Z" fill="white"/>
<path d="M55.6599 36.5334C53.2369 37.5259 50.6204 38.129 48.0479 38.5066C48.9044 40.2046 49.6582 42.0198 50.3094 43.8202C52.8233 43.3079 55.2111 42.6346 57.1676 41.8704L57.5343 40.8429C57.7513 40.2164 57.4551 39.019 56.7921 37.8655C56.4959 37.3649 56.1175 36.9199 55.6599 36.5422V36.5305V36.5334Z" fill="white"/>
<path d="M16.8371 52.1023L17.5469 52.9338C17.9811 53.4344 19.1691 53.7769 20.5067 53.7769C21.0904 53.7769 21.6595 53.6627 22.2197 53.4695C22.5747 50.8815 23.352 48.314 24.3112 45.9075C22.4485 45.7934 20.4949 45.5533 18.5619 45.1991C17.7493 47.629 17.1451 50.0355 16.8253 52.1111L16.8371 52.0994V52.1023Z" fill="white"/>
<path d="M24.5167 33.6263C23.5692 34.7681 22.6658 36.1353 21.8415 37.6283C23.9095 37.8333 25.8631 37.8801 27.5204 37.8801H28.333C28.8698 36.955 29.3831 36.1118 29.8407 35.3712C29.8407 35.3712 26.1036 31.7204 24.5167 33.638V33.6263Z" fill="white"/>
<path d="M11.868 34.9936C11.9942 35.0492 12.1203 35.1077 12.2347 35.1751C13.3435 34.3876 14.6694 33.8284 16.0275 33.3629L16.7022 32.2006C17.5147 30.7983 17.4912 28.8925 17.2038 26.7729C15.1006 27.5487 12.8507 28.2543 10.9059 29.2584L10.4483 30.5817C10.3456 30.9008 9.46563 33.7757 11.8534 35.0082L11.8651 34.9965L11.868 34.9936Z" fill="white"/>
<path d="M40.3095 28.0024C39.7962 26.6118 39.0511 25.1509 38.1711 23.69C36.8335 25.5491 35.6807 27.4549 34.7098 29.1646C35.2348 30.0898 35.7159 30.968 36.1383 31.7321C36.1383 31.7321 41.1778 30.3298 40.3095 28.0024Z" fill="white"/>
<path d="M24.8364 14.4537C24.5401 14.9544 24.3553 15.5135 24.2526 16.0844C26.3206 17.6799 28.1598 19.6327 29.7732 21.6732C30.8233 20.0864 32.0142 18.526 33.258 17.0652C31.5566 15.1388 29.7732 13.4262 28.1276 12.1146L27.054 12.3195C26.4028 12.4454 25.511 13.3003 24.8364 14.4537Z" fill="white"/>
<path d="M24.804 44.7366C26.9424 44.8391 28.9987 44.7717 30.7909 44.4614C33.2491 44.0515 31.9437 38.9868 31.9437 38.9868C30.7088 39.0219 29.248 39.0659 27.6464 39.0659C25.6693 39.0659 23.4869 38.9985 21.2459 38.7585C17.8637 38.3925 14.3672 37.6167 11.3253 36.0446C11.3019 36.0329 11.2696 36.0094 11.2461 35.9977C8.01065 34.2529 9.28079 30.3299 9.32479 30.1806C9.26905 30.2274 9.19865 30.2596 9.14292 30.3065C9.11945 30.3182 9.10772 30.3299 9.08719 30.3416C8.91705 30.4675 8.74399 30.5934 8.58559 30.7281C8.57385 30.7398 8.55039 30.7515 8.53865 30.7632C8.37732 30.9008 8.23065 31.0267 8.08105 31.1731C8.05759 31.1965 8.03412 31.2199 8.01359 31.2404C7.87572 31.378 7.74959 31.5156 7.62639 31.6503C7.59119 31.6854 7.57065 31.7176 7.53545 31.7527C7.42105 31.8903 7.30665 32.0279 7.20399 32.1743C7.16879 32.2211 7.14825 32.2533 7.11305 32.3002C7.01039 32.4495 6.90772 32.5959 6.81679 32.7452C6.79332 32.792 6.76985 32.8242 6.74932 32.8711C6.65839 33.0321 6.56745 33.2019 6.48532 33.3717C6.47359 33.4068 6.45012 33.439 6.43839 33.4741C6.35919 33.6674 6.27705 33.8518 6.20959 34.0567C6.20959 34.0684 6.20959 34.0919 6.19785 34.1124C6.13039 34.329 6.05999 34.5574 6.00425 34.7857C5.34132 37.5903 7.16879 40.1578 9.42159 41.2059C11.868 42.3477 15.3176 43.3723 18.9637 44.0223C20.8939 44.3648 22.8827 44.6049 24.7923 44.7073L24.804 44.7307V44.7366Z" fill="white"/>
<path d="M17.7405 32.795C17.7405 32.795 17.8197 32.7716 17.8667 32.7598C19.4565 32.2475 20.9877 31.7557 22.1523 31.0706C22.1523 31.0706 22.1757 31.0589 22.1875 31.0472C22.2901 30.9916 22.3928 30.9213 22.4837 30.854C22.5189 30.8306 22.5395 30.8071 22.5747 30.7866C22.6539 30.731 22.736 30.6725 22.8035 30.6168C22.8504 30.5817 22.8827 30.5495 22.9296 30.5144C22.9853 30.4675 23.044 30.4119 23.0997 30.3651C23.1467 30.3182 23.1907 30.2743 23.2493 30.2275C23.2963 30.1806 23.3403 30.1367 23.3755 30.0899C23.4312 30.0343 23.4781 29.964 23.5368 29.8967C23.572 29.8615 23.5925 29.8293 23.6277 29.7942C23.7069 29.6917 23.7773 29.5893 23.8331 29.4751C23.8888 29.3609 23.9592 29.2467 24.0032 29.1326C24.0267 29.0857 24.0384 29.0418 24.0501 29.0067C24.0853 28.9276 24.1059 28.8574 24.1293 28.7783C24.1528 28.7227 24.1645 28.6641 24.1763 28.5968C24.1997 28.5295 24.2115 28.4709 24.232 28.4036C24.2437 28.3362 24.2672 28.2543 24.2789 28.1752C24.2789 28.1196 24.3024 28.0728 24.3024 28.0142C24.3141 27.9235 24.3259 27.8327 24.3376 27.7302V27.6278C24.3376 27.5136 24.3493 27.3877 24.3493 27.2735V27.2384C24.3728 25.88 24.0296 24.3313 23.6747 22.6889C23.6747 22.6538 23.6629 22.6099 23.6512 22.5747C23.1261 20.1448 22.5893 17.5803 23.1936 15.3436C23.3315 14.8313 23.5251 14.3394 23.7979 13.871C24.5165 12.6151 25.6488 11.3855 26.8251 11.1571C24.7805 9.73139 21.636 9.4357 19.5328 11.4089C18.0133 12.8346 17.3621 14.6585 17.1773 16.5527V16.5878C16.9133 19.6676 17.8872 23.1456 18.3419 26.3279C18.6968 28.7695 18.7525 31.0267 17.7376 32.795H17.7405Z" fill="white"/>
<path d="M44.8121 54.7139C44.8121 54.5763 44.8004 54.4387 44.7887 54.3041C43.5537 53.7449 42.4127 52.8666 41.3039 51.9327H39.9663C38.3441 51.9327 36.6985 52.9017 34.9943 54.2133C36.7191 55.639 38.4556 57.2346 40.2977 58.4115L41.6705 58.1363C41.6705 58.1363 42.574 57.9431 43.4188 57.3722C44.4132 56.6988 44.8708 55.8323 44.8121 54.7022V54.7139Z" fill="white"/>
<path d="M49.1213 44.0517C48.4583 42.2161 47.6693 40.3805 46.7893 38.6679C45.8183 36.762 44.7213 35.0289 43.5538 33.6265C41.9639 31.709 38.2298 35.3597 38.2298 35.3597C38.8693 36.4078 39.6466 37.652 40.4474 39.0309C41.4418 40.7289 42.4714 42.6582 43.3837 44.7104C44.7565 47.8137 45.8301 51.2243 45.9885 54.6437V54.7345C46.0911 58.4642 41.9082 59.2957 41.8847 59.2957C41.9199 59.3074 41.9405 59.3191 41.9757 59.3425C42.0431 59.3777 42.1018 59.3981 42.1693 59.4333C42.2367 59.4684 42.3071 59.4889 42.3746 59.524C42.4098 59.5357 42.4421 59.5592 42.489 59.5709C42.5565 59.606 42.6386 59.6265 42.7061 59.6499C42.7413 59.6616 42.7735 59.6733 42.8205 59.6968C42.8879 59.7202 42.9583 59.7436 43.0258 59.7641C43.0727 59.7758 43.1167 59.7992 43.1637 59.8109C43.2194 59.8344 43.2781 59.8461 43.3338 59.8666C43.3895 59.89 43.4599 59.9017 43.5157 59.9134C43.5626 59.9251 43.6066 59.9368 43.6535 59.9485C43.7327 59.972 43.8031 59.9837 43.8823 60.0042C43.9175 60.0042 43.9498 60.0159 43.9733 60.0276C44.0642 60.051 44.1551 60.0627 44.249 60.0744H44.3047C44.4074 60.0861 44.5101 60.1095 44.6245 60.1213H44.6479C44.7623 60.133 44.8767 60.1447 44.9911 60.1564C45.4722 60.1915 45.9503 60.1681 46.4431 60.1096C46.5575 60.0978 46.6719 60.0744 46.7863 60.0539H46.8215C46.9242 60.0305 47.0386 60.0071 47.1413 59.9866C47.1647 59.9866 47.1765 59.9866 47.197 59.9749C47.3231 59.9397 47.4493 59.9075 47.5754 59.8724C50.3415 59.041 51.6557 56.1778 51.4386 53.701C51.2098 51.0194 50.365 47.518 49.1066 44.0517H49.1183H49.1213Z" fill="white"/>
<path d="M39.8635 50.6651C38.6168 49.5468 37.4288 48.4636 36.2526 47.8137C36.2526 47.8137 36.2291 47.802 36.2174 47.7902C36.1147 47.7346 36.012 47.6761 35.8976 47.6292C35.8624 47.6175 35.8302 47.5941 35.795 47.5824C35.704 47.5355 35.6248 47.5033 35.531 47.4682C35.484 47.4448 35.4283 47.4331 35.3814 47.4126C35.3139 47.3892 35.2318 47.357 35.1643 47.3335C35.0968 47.3101 35.0382 47.2984 34.9707 47.2779C34.915 47.2662 34.8563 47.2428 34.7888 47.2311C34.7096 47.2077 34.6275 47.1959 34.5483 47.1842C34.5014 47.1842 34.4574 47.1725 34.4104 47.1608C34.2843 47.1491 34.1582 47.1374 34.032 47.1374C33.9059 47.1374 33.7798 47.1374 33.6537 47.1608C33.6067 47.1608 33.5627 47.1725 33.5158 47.1842C33.4366 47.1959 33.3545 47.2077 33.2753 47.2311C33.2195 47.2428 33.1608 47.2662 33.0934 47.2779C33.0259 47.2896 32.9673 47.313 32.8998 47.3335C32.8323 47.354 32.7502 47.3804 32.6827 47.4126C32.6358 47.436 32.5801 47.4477 32.5331 47.4682C32.4422 47.5033 32.363 47.5473 32.2691 47.5824C32.2339 47.5941 32.2017 47.6175 32.1665 47.6292C32.0638 47.6761 31.9494 47.7317 31.8467 47.7902C31.8467 47.7902 31.8232 47.802 31.8115 47.8137C30.6352 48.4753 29.4472 49.5468 28.2006 50.6651C28.1654 50.6886 28.1449 50.7208 28.1097 50.7442C26.2705 52.4217 24.3051 54.1665 22.0641 54.7579C21.5507 54.8955 21.0227 54.9629 20.4859 54.9629C19.0339 54.9629 17.4 54.6086 16.6227 53.6981C16.4056 56.1719 17.7198 59.0351 20.4859 59.8695C22.4864 60.4726 24.3931 60.1213 26.1326 59.3337C26.1326 59.3337 26.156 59.3337 26.1678 59.322C28.9779 57.9988 31.5035 55.4313 34.0291 53.4493C35.971 51.9211 37.9041 50.7471 39.9486 50.7471C39.9134 50.7237 39.8929 50.6915 39.8577 50.6681L39.8635 50.6651Z" fill="white"/>
<path d="M45.4632 21.9688C46.2758 23.3712 47.9419 24.308 49.9307 25.116C50.3091 22.9144 50.8224 20.6104 50.9251 18.4323L49.9982 17.3842C49.9982 17.3842 48.6488 15.9029 47.0267 15.9029C46.4899 15.9029 45.9766 16.0639 45.4486 16.3947C45.3342 16.462 45.2198 16.544 45.1054 16.6231C45.2315 17.9697 45.0496 19.3955 44.7856 20.8212L45.4603 21.9835V21.9718L45.4632 21.9688Z" fill="white"/>
<path d="M27.7755 28.0025C26.9072 30.3416 31.9467 31.7322 31.9467 31.7322C32.5304 30.649 33.2256 29.3609 34.0264 27.979C35.0091 26.2693 36.1648 24.4191 37.4878 22.6069C39.5 19.8696 41.923 17.2348 44.8006 15.3875C44.824 15.364 44.8563 15.3523 44.8798 15.3406C48.0566 13.3908 50.8784 16.5848 50.8902 16.5965V16.4941C50.8902 16.4267 50.8784 16.3565 50.8667 16.2892C50.8667 16.2218 50.8432 16.1398 50.8432 16.0725C50.8432 16.0374 50.8432 15.9935 50.8315 15.9583C50.8315 15.8793 50.808 15.7973 50.7963 15.73C50.7963 15.6949 50.7846 15.6509 50.7728 15.6158C50.7611 15.5485 50.7494 15.4782 50.7259 15.4109C50.7259 15.364 50.7024 15.3201 50.6907 15.2616C50.679 15.203 50.6672 15.1474 50.6438 15.0918C50.632 15.0361 50.6086 14.9659 50.5968 14.9103C50.5851 14.8634 50.5734 14.8195 50.5616 14.7727C50.5382 14.6936 50.5147 14.6234 50.4942 14.5443C50.4942 14.5092 50.4707 14.4887 50.459 14.4536C50.4238 14.3628 50.4032 14.2838 50.368 14.1901C50.368 14.1666 50.3563 14.1549 50.3446 14.1344C50.3094 14.032 50.2654 13.9412 50.2302 13.8388V13.8153C50.1832 13.7129 50.1392 13.6104 50.0806 13.4962C49.8752 13.0747 49.6112 12.6648 49.315 12.2754C49.2475 12.1847 49.1654 12.0939 49.0979 12.0002C49.0979 12.0002 49.0862 11.9885 49.0744 11.9768C49.007 11.8978 48.9248 11.8158 48.8456 11.7367C48.8339 11.725 48.8222 11.7133 48.8104 11.7016C48.7195 11.6109 48.6286 11.5201 48.5347 11.4264C46.4315 9.45322 43.2899 9.74891 41.2424 11.1746C39.0248 12.7146 36.42 15.1884 34.0323 18.0194C32.7651 19.5124 31.5624 21.1109 30.524 22.7181C29.3595 24.5098 28.3974 26.322 27.7579 28.0317V27.9966L27.7755 28.0025Z" fill="white"/>
<path d="M62.0811 34.8121C62.0254 34.5955 61.9667 34.3788 61.8992 34.1856C61.8758 34.13 61.864 34.0831 61.8435 34.0246C61.7966 33.887 61.7408 33.7494 61.6822 33.6147C61.0779 32.2241 60.0718 31.1409 58.8838 30.2714C58.8486 30.248 58.8163 30.2246 58.7811 30.2041C56.232 28.4241 52.7238 27.5136 49.7288 26.3133C47.432 25.3999 45.4432 24.3167 44.4254 22.5484C44.4254 22.5952 44.4019 22.6274 44.4019 22.6743C44.0587 24.3167 43.7155 25.8683 43.7272 27.2238V27.2589C43.7272 27.3848 43.7272 27.499 43.739 27.6131V27.7156C43.739 27.8064 43.7624 27.9088 43.7742 27.9996C43.7742 28.0552 43.7976 28.102 43.7976 28.1606C43.8094 28.2396 43.8211 28.3099 43.8446 28.389C43.8563 28.4563 43.8798 28.5148 43.9003 28.5822C43.912 28.6378 43.9355 28.6963 43.9472 28.7637C43.9707 28.8427 44.003 28.913 44.0264 28.992C44.0382 29.0389 44.0616 29.0828 44.0734 29.1179C44.1203 29.2321 44.176 29.3463 44.2435 29.4604C44.311 29.5746 44.3814 29.6771 44.4488 29.7796C44.4723 29.8147 44.5046 29.8469 44.5398 29.882C44.5867 29.9494 44.6424 30.0079 44.7011 30.0752C44.748 30.1221 44.792 30.166 44.8272 30.2128C44.8742 30.2597 44.9182 30.3036 44.9768 30.3504C45.0355 30.3973 45.0912 30.4529 45.147 30.4997C45.1939 30.5349 45.2262 30.5671 45.2731 30.6022C45.3406 30.6578 45.4227 30.7164 45.5019 30.772C45.5371 30.7954 45.5576 30.8189 45.5928 30.8393C45.6838 30.9067 45.7864 30.9652 45.8891 31.0326C45.8891 31.0326 45.9126 31.0443 45.9243 31.056C47.0888 31.7528 48.6112 32.23 50.2099 32.7452C50.2451 32.7569 50.2891 32.7686 50.3243 32.7803C52.7003 33.5327 55.1936 34.3554 56.8275 35.9978C57.2059 36.3754 57.5256 36.7853 57.7984 37.2537C58.5171 38.5096 59.0334 40.0935 58.6315 41.2235C60.8814 40.1754 62.7118 37.6079 62.0488 34.8033L62.084 34.815L62.0811 34.8121Z" fill="white"/>
<path d="M74.0107 48.7385H71.9427V42.3065H74.0107C74.6737 42.3065 75.187 42.3622 75.5771 42.4676C75.9673 42.5729 76.2753 42.7515 76.5041 42.9916C76.7329 43.2317 76.903 43.5508 77.0174 43.9606C77.1318 44.3705 77.1787 44.8857 77.1787 45.5123C77.1787 46.6306 76.9265 47.4386 76.4249 47.9656C75.9233 48.4779 75.1225 48.7414 74.002 48.7414H74.0137L74.0107 48.7385ZM75.5654 43.8787C75.4393 43.7089 75.2574 43.583 75.0169 43.5127C74.7881 43.4454 74.4449 43.4102 74.0107 43.4102H73.1777V47.5733H74.0107C74.7529 47.5733 75.2574 47.424 75.5068 47.1166C75.7708 46.8209 75.894 46.2851 75.894 45.5093C75.894 45.0995 75.8705 44.7686 75.8147 44.5052C75.759 44.2417 75.6769 44.0367 75.5625 43.8787H75.5654Z" fill="white"/>
<path d="M79.3376 42.9449H78.0704V41.9056H79.3376V42.9449ZM79.3024 48.7386H78.1144V43.6622H79.3024V48.7386Z" fill="white"/>
<path d="M82.3326 44.5873C81.9659 44.5873 81.7166 44.6224 81.5904 44.6898C81.4526 44.7571 81.3851 44.9181 81.3851 45.1582C81.3851 45.2724 81.4086 45.3631 81.4643 45.4217C81.52 45.4802 81.6139 45.5124 81.7401 45.5358L83.0073 45.7174C83.4062 45.773 83.6936 45.8989 83.852 46.095C84.0104 46.2912 84.0926 46.6073 84.0926 47.0406C84.0926 47.6671 83.943 48.1121 83.6585 48.399C83.3739 48.6859 82.8811 48.8206 82.183 48.8206C81.7841 48.8206 81.4174 48.8089 81.0976 48.7738C80.7779 48.7386 80.4934 48.683 80.2646 48.6244V47.5647C80.4817 47.6203 80.7339 47.6671 81.0419 47.7023C81.3499 47.7374 81.6579 47.7579 81.9776 47.7579C82.3326 47.7579 82.5731 47.711 82.6963 47.6203C82.8225 47.5295 82.8899 47.3568 82.8899 47.1197C82.8899 46.9938 82.8547 46.903 82.799 46.8357C82.7432 46.7684 82.6376 46.7332 82.491 46.7098L81.2003 46.5283C80.8454 46.4814 80.5961 46.3468 80.423 46.1301C80.2617 45.9135 80.1707 45.6061 80.1707 45.1962C80.1707 44.6371 80.3408 44.2272 80.684 43.9637C81.0272 43.7002 81.5406 43.5656 82.227 43.5656C82.5115 43.5656 82.7638 43.5656 83.0043 43.589C83.2331 43.6007 83.4737 43.6358 83.723 43.668V44.6839C83.5411 44.6605 83.3358 44.6371 83.0835 44.6166C82.8312 44.6049 82.5702 44.5932 82.3062 44.5932H82.3297L82.3326 44.5873Z" fill="white"/>
<path d="M88.0586 47.6319V48.6478C87.9442 48.6946 87.774 48.7385 87.5658 48.7736C87.3575 48.8088 87.1668 48.8293 86.9938 48.8293C86.3426 48.8293 85.8732 48.6917 85.6004 48.4077C85.3159 48.1237 85.178 47.6553 85.178 46.982V44.6662H84.5034V43.6738H85.2132L85.3746 42.4647H86.369V43.6738H87.9911V44.6662H86.369V46.9468C86.369 47.2425 86.4364 47.4474 86.5626 47.5616C86.6887 47.6758 86.9292 47.7226 87.2607 47.7226C87.3751 47.7226 87.513 47.7226 87.6714 47.6992C87.8298 47.6758 87.9559 47.6524 88.0498 47.6319H88.0615H88.0586Z" fill="white"/>
<path d="M89.9415 48.7384H88.7535V43.6619H89.8506L89.8975 44.0718H89.9327C90.185 43.9225 90.4461 43.8083 90.6983 43.7176C90.9623 43.6385 91.2117 43.5917 91.4639 43.5917H91.6575V44.7422C91.6575 44.7422 91.5666 44.7188 91.4962 44.7188H91.1647C90.9242 44.7188 90.6954 44.7422 90.5018 44.7744C90.2965 44.8213 90.1146 44.8769 89.9415 44.9442V48.7296V48.7384Z" fill="white"/>
<path d="M93.6112 42.9449H92.344V41.9056H93.6112V42.9449ZM93.576 48.7386H92.388V43.6622H93.576V48.7386Z" fill="white"/>
<path d="M97.4511 43.5595C98.1375 43.5595 98.6273 43.7644 98.9148 44.1626C99.2023 44.5607 99.349 45.2224 99.349 46.1592C99.349 47.096 99.1671 47.7781 98.7887 48.1997C98.4103 48.6213 97.7943 48.8262 96.9378 48.8262C96.5036 48.8262 96.093 48.8028 95.7028 48.7589C95.3244 48.712 94.9842 48.6447 94.6732 48.554V41.9171H95.8612V43.9693C96.1017 43.8435 96.354 43.741 96.6268 43.6737C96.8996 43.6063 97.1636 43.5712 97.4276 43.5712L97.4511 43.5595ZM98.161 46.1621C98.161 45.5678 98.0935 45.1579 97.9439 44.953C97.7943 44.7364 97.498 44.6339 97.0287 44.6339C96.8351 44.6339 96.6298 44.6573 96.4244 44.7012C96.2191 44.7481 96.046 44.8037 95.8876 44.8828V47.6318C96.0138 47.6669 96.1516 47.6874 96.31 47.6991C96.4713 47.7108 96.6532 47.7225 96.8703 47.7225C97.3953 47.7225 97.7503 47.6201 97.9116 47.4034C98.0818 47.1868 98.1639 46.7769 98.1639 46.1592L98.161 46.1621Z" fill="white"/>
<path d="M101.93 48.8292C101.358 48.8292 100.936 48.6916 100.651 48.4076C100.367 48.1236 100.229 47.6991 100.229 47.1312V43.6766H101.417V46.9848C101.417 47.2483 101.484 47.4298 101.622 47.5557C101.76 47.6699 101.977 47.7255 102.285 47.7255C102.479 47.7255 102.672 47.7021 102.869 47.6699C103.065 47.6377 103.256 47.5791 103.429 47.5088V43.6883H104.617V48.7648H103.52L103.473 48.4105H103.438C103.153 48.5598 102.889 48.6623 102.625 48.7414C102.361 48.8204 102.124 48.8555 101.907 48.8555L101.93 48.8321V48.8292Z" fill="white"/>
<path d="M108.947 47.6319V48.6478C108.832 48.6946 108.662 48.7385 108.454 48.7736C108.245 48.8088 108.055 48.8293 107.882 48.8293C107.231 48.8293 106.761 48.6917 106.488 48.4077C106.204 48.1237 106.066 47.6553 106.066 46.982V44.6662H105.391V43.6738H106.101L106.263 42.4647H107.257V43.6738H108.879V44.6662H107.257V46.9468C107.257 47.2425 107.324 47.4474 107.451 47.5616C107.577 47.6758 107.817 47.7226 108.149 47.7226C108.263 47.7226 108.401 47.7226 108.559 47.6992C108.718 47.6758 108.844 47.6524 108.938 47.6319H108.949H108.947Z" fill="white"/>
<path d="M113.587 47.4942V48.4632C113.417 48.5657 113.141 48.6564 112.774 48.7267C112.408 48.7969 112.021 48.8291 111.63 48.8291C110.818 48.8291 110.237 48.6242 109.882 48.2144C109.527 47.8045 109.357 47.1311 109.357 46.1855C109.357 45.2399 109.539 44.6105 109.917 44.1889C110.284 43.7673 110.877 43.5624 111.677 43.5624C112.478 43.5624 113.003 43.7234 113.323 44.0425C113.643 44.3616 113.804 44.9208 113.804 45.6966V46.0948C113.804 46.209 113.781 46.3788 113.757 46.5954H110.569C110.569 47.017 110.671 47.3127 110.853 47.4854C111.035 47.6552 111.355 47.7372 111.824 47.7372C112.132 47.7372 112.452 47.7137 112.783 47.6698C113.115 47.6259 113.387 47.5674 113.596 47.5H113.584L113.587 47.4942ZM111.669 44.5988C111.246 44.5988 110.959 44.6778 110.8 44.8505C110.639 45.0116 110.56 45.319 110.56 45.7405H112.707V45.5239C112.707 45.1697 112.616 44.9296 112.466 44.8066C112.317 44.669 112.044 44.6017 111.666 44.6017L111.669 44.5988Z" fill="white"/>
<path d="M117.952 41.9056H119.14V48.7386H118.09L118.022 48.2702H117.975C117.782 48.4634 117.553 48.601 117.289 48.6918C117.025 48.7825 116.717 48.8294 116.374 48.8294C115.699 48.8294 115.209 48.6244 114.922 48.2146C114.637 47.8047 114.488 47.1314 114.488 46.1945C114.488 45.2577 114.669 44.599 115.024 44.1862C115.391 43.7763 115.984 43.5714 116.808 43.5714C117.025 43.5714 117.23 43.5831 117.424 43.6183C117.617 43.6534 117.79 43.6856 117.937 43.7441V41.9202L117.949 41.9085L117.952 41.9056ZM116.981 44.6312C116.456 44.6312 116.101 44.7337 115.94 44.9503C115.769 45.1669 115.687 45.5768 115.687 46.1945C115.687 46.8123 115.755 47.1987 115.904 47.4036C116.054 47.6203 116.35 47.7227 116.82 47.7227C117.037 47.7227 117.242 47.6993 117.436 47.6554C117.629 47.6115 117.802 47.5412 117.961 47.4505V44.8039C117.811 44.7483 117.664 44.7015 117.503 44.6663C117.342 44.6429 117.172 44.6195 116.978 44.6195V44.6312H116.981Z" fill="white"/>
<path d="M127.632 45.5008C127.632 46.6748 127.403 47.5209 126.934 48.0449C126.465 48.569 125.722 48.8324 124.672 48.8324C123.564 48.8324 122.786 48.5924 122.352 48.1035C121.918 47.6116 121.701 46.7451 121.701 45.5155C121.701 44.3532 121.93 43.5071 122.399 42.9948C122.868 42.4708 123.622 42.219 124.661 42.219C125.769 42.219 126.535 42.4591 126.969 42.948C127.403 43.4398 127.62 44.2947 127.62 45.5155L127.632 45.5038V45.5008ZM123.22 47.1315C123.335 47.3247 123.496 47.474 123.701 47.5531C123.918 47.6321 124.238 47.679 124.684 47.679C125.359 47.679 125.816 47.5297 126.045 47.2223C126.274 46.9149 126.388 46.344 126.388 45.5126C126.388 45.1144 126.365 44.7836 126.333 44.5201C126.297 44.2566 126.23 44.0517 126.139 43.8819C126.025 43.6769 125.863 43.5276 125.658 43.4486C125.441 43.3578 125.121 43.3227 124.687 43.3227C124.001 43.3227 123.543 43.472 123.314 43.7794C123.085 44.0868 122.971 44.6694 122.971 45.5126C122.971 45.9107 122.994 46.2415 123.027 46.505C123.074 46.7685 123.129 46.9734 123.209 47.1315H123.22Z" fill="white"/>
<path d="M129.759 50.3018H128.571V43.6738H129.612L129.679 44.1422H129.726C129.92 43.9607 130.149 43.8114 130.413 43.7206C130.677 43.6299 130.985 43.5713 131.316 43.5713C132.003 43.5713 132.493 43.7762 132.78 44.1861C133.067 44.596 133.214 45.2693 133.214 46.2061C133.214 47.143 133.032 47.8134 132.666 48.2262C132.299 48.636 131.706 48.841 130.87 48.841C130.642 48.841 130.425 48.8293 130.231 48.7941C130.037 48.759 129.876 48.7268 129.738 48.6682V50.3106L129.762 50.2989L129.759 50.3018ZM132.032 46.1944C132.032 45.6001 131.953 45.1903 131.803 44.9619C131.654 44.7453 131.346 44.6311 130.9 44.6311C130.683 44.6311 130.489 44.6545 130.295 44.6984C130.102 44.7423 129.929 44.8126 129.759 44.9034V47.5499C129.885 47.6055 130.023 47.6407 130.181 47.6758C130.342 47.6992 130.524 47.7226 130.73 47.7226C131.255 47.7226 131.61 47.6202 131.771 47.4152C131.941 47.2103 132.023 46.8004 132.023 46.1944H132.035H132.032Z" fill="white"/>
<path d="M138.145 47.4942V48.4632C137.975 48.5657 137.699 48.6564 137.332 48.7267C136.966 48.7969 136.579 48.8291 136.188 48.8291C135.376 48.8291 134.795 48.6242 134.44 48.2144C134.085 47.8045 133.915 47.1311 133.915 46.1855C133.915 45.2399 134.097 44.6105 134.475 44.1889C134.842 43.7673 135.435 43.5624 136.235 43.5624C137.036 43.5624 137.561 43.7234 137.881 44.0425C138.201 44.3616 138.362 44.9208 138.362 45.6966V46.0948C138.362 46.209 138.339 46.3788 138.315 46.5954H135.127C135.127 47.017 135.229 47.3127 135.411 47.4854C135.593 47.6552 135.913 47.7372 136.382 47.7372C136.69 47.7372 137.01 47.7137 137.341 47.6698C137.673 47.6259 137.946 47.5674 138.154 47.5H138.142L138.145 47.4942ZM136.227 44.5988C135.804 44.5988 135.517 44.6778 135.358 44.8505C135.197 45.0116 135.118 45.319 135.118 45.7405H137.265V45.5239C137.265 45.1697 137.174 44.9296 137.024 44.8066C136.875 44.669 136.602 44.6017 136.224 44.6017L136.227 44.5988Z" fill="white"/>
<path d="M140.454 48.7385H139.266V43.6621H140.295L140.351 44.1744H140.386C140.627 43.9578 140.888 43.8084 141.163 43.706C141.439 43.6035 141.768 43.5567 142.146 43.5567C142.706 43.5567 143.141 43.6943 143.437 43.9782C143.733 44.2622 143.883 44.675 143.883 45.2225V48.7356H142.695V45.3835C142.695 45.1317 142.615 44.9502 142.454 44.8243C142.293 44.6984 142.055 44.6311 141.735 44.6311C141.507 44.6311 141.29 44.6662 141.073 44.7219C140.855 44.7775 140.662 44.8712 140.477 44.9853V48.7385H140.454Z" fill="white"/>
<path d="M78.2289 53.7126V60.1445H77.0644V55.6741L75.5889 58.8798H74.571L73.1073 55.6624V60.1328H71.9427V53.7009H73.4622L75.0961 57.3633L76.7417 53.7009H78.2171L78.2289 53.7126Z" fill="white"/>
<path d="M80.596 60.2354C80.0709 60.2354 79.6925 60.1095 79.452 59.8489C79.2115 59.5972 79.0853 59.1873 79.0853 58.6398C79.0853 58.0924 79.2349 57.6825 79.5195 57.4542C79.804 57.2258 80.3085 57.0999 81.0272 57.0999C81.2208 57.0999 81.4261 57.0999 81.6315 57.1351C81.8368 57.1585 82.0187 57.1819 82.1683 57.2141V56.7808C82.1683 56.5173 82.0891 56.3241 81.916 56.1982C81.7547 56.0723 81.4936 56.0167 81.1387 56.0167C80.8189 56.0167 80.5344 56.0167 80.2821 56.0518C80.0299 56.0753 79.7893 56.1075 79.5635 56.1543V55.1619C79.8275 55.1062 80.112 55.0594 80.4083 55.0243C80.7163 54.9891 81.0712 54.9774 81.4936 54.9774C82.1213 54.9774 82.5789 55.1267 82.8869 55.399C83.1949 55.683 83.3563 56.1075 83.3563 56.6754V60.1417H82.2592L82.2123 59.685H82.1888C81.9717 59.846 81.7195 59.9807 81.4349 60.0831C81.1504 60.1856 80.8747 60.2325 80.6019 60.2325H80.5901L80.596 60.2354ZM81.1768 57.9548C80.8101 57.9548 80.5491 58.0016 80.4112 58.0807C80.2733 58.1597 80.2059 58.3324 80.2059 58.5725C80.2059 58.8126 80.2616 58.9707 80.376 59.0731C80.4904 59.1756 80.684 59.2224 80.9597 59.2224C81.1533 59.2224 81.3704 59.1873 81.5875 59.1317C81.8163 59.076 82.0099 58.9941 82.1712 58.915V58.0485C82.0099 58.025 81.8397 58.0016 81.6784 57.9928C81.5171 57.9841 81.3469 57.9694 81.1651 57.9694L81.1768 57.9577V57.9548Z" fill="white"/>
<path d="M85.6561 60.1445H84.4681V55.0681H85.5652L85.6121 55.4779H85.6473C85.8996 55.3286 86.1607 55.2144 86.4129 55.1237C86.6769 55.0446 86.9263 54.9978 87.1785 54.9978H87.3721V56.1483C87.3721 56.1483 87.2812 56.1249 87.2108 56.1249H86.8793C86.6388 56.1249 86.41 56.1483 86.2164 56.1805C86.0111 56.2274 85.8292 56.283 85.6561 56.3503V60.1357V60.1445Z" fill="white"/>
<path d="M89.3022 58.0571V60.1444H88.1142V53.3114H89.3022V57.088H89.7363L91.2558 55.068H92.6726L90.7307 57.5213L92.7753 60.1327H91.2998L89.7334 58.0454H89.2875L89.2993 58.0571H89.3022Z" fill="white"/>
<path d="M97.0285 58.9003V59.8693C96.8584 59.9718 96.5827 60.0625 96.216 60.1328C95.8493 60.2031 95.4621 60.2353 95.072 60.2353C94.2594 60.2353 93.6786 60.0303 93.3237 59.6205C92.9688 59.2106 92.7986 58.5373 92.7986 57.5916C92.7986 56.646 92.9805 56.0166 93.3589 55.595C93.7256 55.1735 94.3181 54.9685 95.1189 54.9685C95.9197 54.9685 96.4448 55.1295 96.7645 55.4486C97.0843 55.7678 97.2456 56.3269 97.2456 57.1027V57.5009C97.2456 57.6151 97.2221 57.7849 97.1986 58.0015H94.0101C94.0101 58.4231 94.1128 58.7188 94.2946 58.8915C94.4765 59.0613 94.7962 59.1433 95.2656 59.1433C95.5736 59.1433 95.8933 59.1198 96.2248 59.0759C96.5563 59.032 96.829 58.9735 97.0373 58.9061H97.0256L97.0285 58.9003ZM95.1072 56.0049C94.6848 56.0049 94.3973 56.0839 94.2389 56.2567C94.0776 56.4177 93.9984 56.7251 93.9984 57.1467H96.1456V56.93C96.1456 56.5758 96.0547 56.3357 95.9051 56.2127C95.7555 56.0752 95.4826 56.0078 95.1042 56.0078L95.1072 56.0049Z" fill="white"/>
<path d="M101.267 59.0377V60.0536C101.153 60.1004 100.983 60.1443 100.774 60.1795C100.566 60.2146 100.375 60.2351 100.202 60.2351C99.5512 60.2351 99.0818 60.0975 98.809 59.8135C98.5245 59.5295 98.3866 59.0611 98.3866 58.3878V56.0721H97.712V55.0796H98.4218L98.5832 53.8705H99.5776V55.0796H101.2V56.0721H99.5776V58.3526C99.5776 58.6483 99.645 58.8533 99.7712 58.9674C99.8973 59.0816 100.138 59.1285 100.469 59.1285C100.584 59.1285 100.722 59.1285 100.88 59.105C101.038 59.0816 101.165 59.0582 101.258 59.0377H101.27H101.267Z" fill="white"/>
<path d="M103.154 61.708H101.966V55.0799H103.007L103.074 55.5483H103.121C103.315 55.3668 103.544 55.2175 103.808 55.1267C104.072 55.036 104.38 54.9774 104.711 54.9774C105.398 54.9774 105.887 55.1824 106.175 55.5922C106.459 56.0021 106.609 56.6754 106.609 57.6123C106.609 58.5491 106.427 59.2195 106.061 59.6323C105.694 60.0451 105.101 60.2471 104.265 60.2471C104.037 60.2471 103.819 60.2354 103.626 60.2002C103.432 60.1651 103.271 60.1329 103.133 60.0744V61.7167L103.157 61.705L103.154 61.708ZM105.427 57.6005C105.427 57.0062 105.348 56.5964 105.198 56.368C105.049 56.1514 104.741 56.0372 104.295 56.0372C104.078 56.0372 103.884 56.0606 103.69 56.1045C103.497 56.1485 103.324 56.2187 103.154 56.3095V58.956C103.28 59.0116 103.418 59.0468 103.576 59.0819C103.737 59.1053 103.919 59.1287 104.125 59.1287C104.65 59.1287 105.005 59.0263 105.166 58.8213C105.336 58.6164 105.418 58.2066 105.418 57.6005H105.43H105.427Z" fill="white"/>
<path d="M108.718 53.3114V60.1444H107.53V53.3114H108.718Z" fill="white"/>
<path d="M111.026 60.2354C110.501 60.2354 110.123 60.1095 109.882 59.8489C109.642 59.5972 109.516 59.1873 109.516 58.6398C109.516 58.0924 109.665 57.6825 109.95 57.4542C110.234 57.2258 110.739 57.0999 111.457 57.0999C111.651 57.0999 111.856 57.0999 112.062 57.1351C112.267 57.1585 112.449 57.1819 112.598 57.2141V56.7808C112.598 56.5173 112.519 56.3241 112.346 56.1982C112.185 56.0723 111.924 56.0167 111.569 56.0167C111.249 56.0167 110.965 56.0167 110.712 56.0518C110.46 56.0753 110.22 56.1075 109.994 56.1543V55.1619C110.258 55.1062 110.542 55.0594 110.838 55.0243C111.146 54.9891 111.501 54.9774 111.924 54.9774C112.552 54.9774 113.009 55.1267 113.317 55.399C113.625 55.683 113.786 56.1075 113.786 56.6754V60.1417H112.689L112.642 59.685H112.619C112.402 59.846 112.15 59.9807 111.865 60.0831C111.581 60.1856 111.305 60.2325 111.032 60.2325H111.02L111.026 60.2354ZM111.61 57.9548C111.243 57.9548 110.982 58.0016 110.844 58.0807C110.706 58.1597 110.639 58.3324 110.639 58.5725C110.639 58.8126 110.695 58.9707 110.809 59.0731C110.924 59.1756 111.117 59.2224 111.393 59.2224C111.586 59.2224 111.804 59.1873 112.021 59.1317C112.249 59.076 112.443 58.9941 112.604 58.915V58.0485C112.443 58.025 112.273 58.0016 112.112 57.9928C111.95 57.9841 111.78 57.9694 111.598 57.9694L111.61 57.9577V57.9548Z" fill="white"/>
<path d="M118.559 58.8563V59.8488C118.377 59.9512 118.113 60.042 117.758 60.1122C117.404 60.1913 117.04 60.2264 116.661 60.2264C115.931 60.2264 115.426 60.0332 115.13 59.6438C114.834 59.2574 114.684 58.5723 114.684 57.5916C114.684 56.6108 114.878 55.9492 115.256 55.5511C115.635 55.1529 116.298 54.9568 117.222 54.9568C117.45 54.9568 117.656 54.9568 117.838 54.9685C118.02 54.9802 118.216 55.0036 118.421 55.0241V56.0839C118.157 56.0605 117.92 56.0487 117.723 56.037C117.53 56.037 117.357 56.0253 117.23 56.0253C116.67 56.0253 116.304 56.1278 116.133 56.321C115.963 56.5142 115.881 56.9358 115.881 57.5857C115.881 58.2357 115.949 58.625 116.075 58.8183C116.213 59.0115 116.485 59.1139 116.908 59.1139C117.192 59.1139 117.48 59.0905 117.776 59.0349C118.072 58.9881 118.325 58.9207 118.542 58.8417L118.553 58.8534L118.559 58.8563Z" fill="white"/>
<path d="M123.346 58.9003V59.8693C123.176 59.9718 122.9 60.0625 122.534 60.1328C122.167 60.2031 121.78 60.2353 121.39 60.2353C120.577 60.2353 119.996 60.0303 119.641 59.6205C119.287 59.2106 119.116 58.5373 119.116 57.5916C119.116 56.646 119.298 56.0166 119.677 55.595C120.043 55.1735 120.636 54.9685 121.437 54.9685C122.237 54.9685 122.763 55.1295 123.082 55.4486C123.402 55.7678 123.563 56.3269 123.563 57.1027V57.5009C123.563 57.6151 123.54 57.7849 123.516 58.0015H120.328C120.328 58.4231 120.431 58.7188 120.612 58.8915C120.794 59.0613 121.114 59.1433 121.583 59.1433C121.891 59.1433 122.211 59.1198 122.543 59.0759C122.874 59.032 123.147 58.9735 123.355 58.9061H123.343L123.346 58.9003ZM121.428 56.0049C121.005 56.0049 120.718 56.0839 120.56 56.2567C120.398 56.4177 120.319 56.7251 120.319 57.1467H122.466V56.93C122.466 56.5758 122.375 56.3357 122.226 56.2127C122.076 56.0752 121.803 56.0078 121.425 56.0078L121.428 56.0049Z" fill="white"/>
<path d="M126.456 56.0723H125.781V55.0798H126.456V55.033C126.456 54.4299 126.605 53.9849 126.925 53.6746C127.233 53.3789 127.702 53.2179 128.318 53.2179C128.468 53.2179 128.626 53.2179 128.788 53.2413C128.949 53.2647 129.108 53.2882 129.257 53.3087V54.2543C129.154 54.2426 129.04 54.2308 128.902 54.2191C128.764 54.2074 128.65 54.2074 128.536 54.2074C128.181 54.2074 127.952 54.2543 127.826 54.3567C127.711 54.4592 127.644 54.6524 127.644 54.9393V55.0886H129.096V56.0811H127.644V60.1534H126.456V56.0694V56.0723Z" fill="white"/>
<path d="M134.294 57.6005C134.294 58.5578 134.112 59.2429 133.745 59.641C133.378 60.0392 132.751 60.2441 131.871 60.2441C130.991 60.2441 130.34 60.0509 129.973 59.6498C129.606 59.2634 129.424 58.5783 129.424 57.5976C129.424 56.6168 129.606 55.9669 129.985 55.5687C130.351 55.1706 130.979 54.9657 131.871 54.9657C132.762 54.9657 133.39 55.1589 133.757 55.56C134.124 55.961 134.305 56.6315 134.305 57.6005H134.294ZM130.627 57.5888C130.627 58.2153 130.706 58.6369 130.868 58.833C131.029 59.0262 131.36 59.1287 131.874 59.1287C132.387 59.1287 132.707 59.0262 132.868 58.8213C133.029 58.6164 133.109 58.2065 133.109 57.5888C133.109 56.9711 133.029 56.5407 132.88 56.3328C132.73 56.125 132.387 56.0372 131.874 56.0372C131.36 56.0372 131.029 56.1396 130.868 56.3446C130.706 56.5495 130.627 56.9593 130.627 57.5888Z" fill="white"/>
<path d="M136.409 60.1445H135.221V55.0681H136.318L136.365 55.4779H136.4C136.652 55.3286 136.913 55.2144 137.166 55.1237C137.43 55.0446 137.679 54.9978 137.931 54.9978H138.125V56.1483C138.125 56.1483 138.034 56.1249 137.963 56.1249H137.632C137.391 56.1249 137.163 56.1483 136.969 56.1805C136.764 56.2274 136.582 56.283 136.409 56.3503V60.1357V60.1445Z" fill="white"/>
<path d="M144.763 58.982V60.1443H140.398V53.7124H144.672V54.819H141.633V56.3355H144.284V57.3953H141.633V58.9908H144.763V58.9791V58.982Z" fill="white"/>
<path d="M147.253 60.2353C146.681 60.2353 146.259 60.0977 145.974 59.8137C145.69 59.5298 145.552 59.1053 145.552 58.5373V55.0827H146.74V58.3909C146.74 58.6544 146.807 58.8359 146.945 58.9618C147.083 59.076 147.3 59.1316 147.608 59.1316C147.801 59.1316 147.995 59.1082 148.192 59.076C148.388 59.0438 148.579 58.9852 148.752 58.915V55.0945H149.94V60.1709H148.843L148.796 59.8167H148.761C148.476 59.966 148.212 60.0684 147.948 60.1475C147.684 60.2265 147.447 60.2617 147.23 60.2617L147.253 60.2382V60.2353Z" fill="white"/>
<path d="M152.284 60.1445H151.096V55.0681H152.193L152.24 55.4779H152.275C152.527 55.3286 152.788 55.2144 153.041 55.1237C153.305 55.0446 153.554 54.9978 153.806 54.9978H154V56.1483C154 56.1483 153.909 56.1249 153.838 56.1249H153.507C153.266 56.1249 153.038 56.1483 152.844 56.1805C152.639 56.2274 152.457 56.283 152.284 56.3503V60.1357V60.1445Z" fill="white"/>
<path d="M159.265 57.6005C159.265 58.5578 159.083 59.2429 158.717 59.641C158.35 60.0392 157.722 60.2441 156.842 60.2441C155.962 60.2441 155.311 60.0509 154.944 59.6498C154.578 59.2634 154.396 58.5783 154.396 57.5976C154.396 56.6168 154.578 55.9669 154.956 55.5687C155.323 55.1706 155.95 54.9657 156.842 54.9657C157.734 54.9657 158.362 55.1589 158.728 55.56C159.095 55.9581 159.277 56.6315 159.277 57.6005H159.265ZM155.595 57.5888C155.595 58.2153 155.675 58.6369 155.836 58.833C155.997 59.0262 156.329 59.1287 156.842 59.1287C157.355 59.1287 157.675 59.0262 157.837 58.8213C157.998 58.6164 158.077 58.2065 158.077 57.5888C158.077 56.9711 157.998 56.5407 157.848 56.3328C157.699 56.125 157.355 56.0372 156.842 56.0372C156.329 56.0372 155.997 56.1396 155.836 56.3446C155.675 56.5495 155.595 56.9593 155.595 57.5888Z" fill="white"/>
<path d="M161.38 61.708H160.192V55.0799H161.234L161.301 55.5483H161.348C161.542 55.3668 161.77 55.2175 162.034 55.1267C162.298 55.036 162.606 54.9774 162.938 54.9774C163.624 54.9774 164.114 55.1824 164.402 55.5922C164.686 56.0021 164.836 56.6754 164.836 57.6123C164.836 58.5491 164.654 59.2195 164.287 59.6323C163.921 60.0422 163.328 60.2471 162.492 60.2471C162.263 60.2471 162.046 60.2354 161.853 60.2002C161.659 60.1651 161.498 60.1329 161.36 60.0744V61.7167L161.383 61.705L161.38 61.708ZM163.654 57.6005C163.654 57.0062 163.574 56.5964 163.425 56.368C163.275 56.1514 162.967 56.0372 162.521 56.0372C162.304 56.0372 162.111 56.0606 161.917 56.1045C161.723 56.1485 161.55 56.2187 161.38 56.3095V58.956C161.506 59.0116 161.644 59.0468 161.803 59.0819C161.964 59.1053 162.146 59.1287 162.351 59.1287C162.876 59.1287 163.231 59.0263 163.393 58.8213C163.563 58.6164 163.645 58.2066 163.645 57.6005H163.657H163.654Z" fill="white"/>
<path d="M169.755 58.9003V59.8693C169.585 59.9718 169.309 60.0625 168.942 60.1328C168.576 60.2031 168.188 60.2353 167.798 60.2353C166.986 60.2353 166.405 60.0303 166.05 59.6205C165.695 59.2106 165.525 58.5373 165.525 57.5916C165.525 56.646 165.707 56.0166 166.085 55.595C166.452 55.1735 167.044 54.9685 167.845 54.9685C168.646 54.9685 169.171 55.1295 169.491 55.4486C169.811 55.7678 169.972 56.3269 169.972 57.1027V57.5009C169.972 57.6151 169.948 57.7849 169.925 58.0015H166.736C166.736 58.4231 166.839 58.7188 167.021 58.8915C167.203 59.0613 167.523 59.1433 167.992 59.1433C168.3 59.1433 168.62 59.1198 168.951 59.0759C169.283 59.032 169.555 58.9735 169.764 58.9061H169.752L169.755 58.9003ZM167.848 56.0049C167.426 56.0049 167.138 56.0839 166.98 56.2567C166.819 56.4177 166.739 56.7251 166.739 57.1467H168.887V56.93C168.887 56.5758 168.796 56.3357 168.646 56.2127C168.496 56.0752 168.224 56.0078 167.845 56.0078L167.848 56.0049Z" fill="white"/>
<path d="M90.0676 13.1978C91.8951 15.1037 92.7985 17.841 92.7985 21.3863C92.7985 24.9316 91.8833 27.6719 90.0676 29.5748C88.2401 31.4807 85.6119 32.438 82.1711 32.438H72.0012V10.3347H82.1711C85.6119 10.3347 88.2519 11.292 90.0676 13.1978ZM84.7436 25.9973C85.4183 25.0282 85.7497 23.4883 85.7497 21.3892C85.7497 19.2902 85.4183 17.7503 84.7436 16.7812C84.0689 15.8122 82.9279 15.3203 81.3263 15.3203H78.8476V27.4435H81.3263C82.9367 27.4435 84.0807 26.9517 84.7436 25.9826V25.9944V25.9973Z" fill="white"/>
<path d="M114.444 13.0046C116.386 15.0012 117.356 17.7941 117.356 21.3863C117.356 24.9784 116.386 27.7743 114.444 29.768C112.502 31.7646 109.791 32.7688 106.318 32.7688C104.033 32.7688 102.068 32.3238 100.399 31.4338C98.7298 30.5438 97.4509 29.2322 96.5592 27.5108C95.6674 25.7894 95.2216 23.7459 95.2216 21.3863C95.2216 19.0266 95.6674 16.9715 96.5592 15.2618C97.4509 13.5403 98.7298 12.2405 100.399 11.3505C102.068 10.4605 104.045 10.0155 106.318 10.0155C109.78 10.0155 112.49 11.0197 114.444 13.0163V13.0046ZM103.268 16.7578C102.593 17.7736 102.262 19.3253 102.262 21.4009C102.262 23.4766 102.593 25.0282 103.268 26.0441C103.942 27.06 104.96 27.5723 106.318 27.5723C107.676 27.5723 108.694 27.0717 109.357 26.0675C110.02 25.0633 110.352 23.5117 110.352 21.4126C110.352 19.3135 110.02 17.7619 109.357 16.7578C108.694 15.7536 107.688 15.253 106.318 15.253C104.948 15.253 103.942 15.7653 103.268 16.7812V16.7578Z" fill="white"/>
<path d="M147.79 32.4409H141.756V23.6025L141.894 16.4738H141.826L136.957 32.4409H131.448L126.649 16.4738H126.547L126.685 23.6025V32.4409H120.651V10.3347H130.319L133.302 20.8154L134.411 25.2068H134.478L135.587 20.8154L138.57 10.3347H147.793V32.438L147.79 32.4409Z" fill="white"/>
<path d="M170.133 27.3176V32.438H151.85V10.3347H169.699V15.455H158.693V19.0355H167.481V23.7928H158.693V27.3059H170.133V27.3176Z" fill="white"/>
</svg>
